<mxfile host="app.diagrams.net" modified="2022-01-15T16:25:10.332Z" agent="5.0 (Windows NT 10.0; Win64; x64) AppleWebKit/537.36 (KHTML, like Gecko) Chrome/97.0.4692.71 Safari/537.36" etag="4QL7ep1DRmxYsSe1lEYT" version="16.2.7" type="github" pages="3">
  <diagram id="C5RBs43oDa-KdzZeNtuy" name="Main">
    <mxGraphModel dx="1422" dy="794" grid="1" gridSize="10" guides="1" tooltips="1" connect="1" arrows="1" fold="1" page="1" pageScale="1" pageWidth="827" pageHeight="1169" math="0" shadow="0">
      <root>
        <mxCell id="WIyWlLk6GJQsqaUBKTNV-0" />
        <mxCell id="WIyWlLk6GJQsqaUBKTNV-1" parent="WIyWlLk6GJQsqaUBKTNV-0" />
        <mxCell id="WIyWlLk6GJQsqaUBKTNV-2" value="" style="rounded=0;html=1;jettySize=auto;orthogonalLoop=1;fontSize=11;endArrow=block;endFill=0;endSize=8;strokeWidth=1;shadow=0;labelBackgroundColor=none;edgeStyle=orthogonalEdgeStyle;entryX=0.5;entryY=0;entryDx=0;entryDy=0;" parent="WIyWlLk6GJQsqaUBKTNV-1" target="jihVnL-XziXCGQ76NfYd-6" edge="1">
          <mxGeometry relative="1" as="geometry">
            <mxPoint x="463" y="427" as="sourcePoint" />
            <mxPoint x="463" y="469" as="targetPoint" />
          </mxGeometry>
        </mxCell>
        <mxCell id="WIyWlLk6GJQsqaUBKTNV-3" value="Start" style="rounded=1;whiteSpace=wrap;html=1;fontSize=12;glass=0;strokeWidth=1;shadow=0;" parent="WIyWlLk6GJQsqaUBKTNV-1" vertex="1">
          <mxGeometry x="160" y="80" width="120" height="40" as="geometry" />
        </mxCell>
        <mxCell id="WIyWlLk6GJQsqaUBKTNV-6" value="Do you want to enter an order?" style="rhombus;whiteSpace=wrap;html=1;shadow=0;fontFamily=Helvetica;fontSize=12;align=center;strokeWidth=1;spacing=6;spacingTop=-4;" parent="WIyWlLk6GJQsqaUBKTNV-1" vertex="1">
          <mxGeometry x="161.5" y="320" width="117" height="107" as="geometry" />
        </mxCell>
        <mxCell id="WIyWlLk6GJQsqaUBKTNV-7" value="Exit&lt;br&gt;" style="rounded=1;whiteSpace=wrap;html=1;fontSize=12;glass=0;strokeWidth=1;shadow=0;" parent="WIyWlLk6GJQsqaUBKTNV-1" vertex="1">
          <mxGeometry x="593" y="360" width="70" height="30" as="geometry" />
        </mxCell>
        <mxCell id="WIyWlLk6GJQsqaUBKTNV-12" value="Get order&lt;br&gt;" style="rounded=1;whiteSpace=wrap;html=1;fontSize=12;glass=0;strokeWidth=1;shadow=0;" parent="WIyWlLk6GJQsqaUBKTNV-1" vertex="1">
          <mxGeometry x="161" y="471" width="120" height="40" as="geometry" />
        </mxCell>
        <mxCell id="jihVnL-XziXCGQ76NfYd-0" value="Display Greeting" style="rounded=1;whiteSpace=wrap;html=1;fontSize=12;glass=0;strokeWidth=1;shadow=0;" vertex="1" parent="WIyWlLk6GJQsqaUBKTNV-1">
          <mxGeometry x="160" y="162" width="120" height="40" as="geometry" />
        </mxCell>
        <mxCell id="jihVnL-XziXCGQ76NfYd-1" value="Display recipe list&lt;br&gt;" style="rounded=1;whiteSpace=wrap;html=1;fontSize=12;glass=0;strokeWidth=1;shadow=0;" vertex="1" parent="WIyWlLk6GJQsqaUBKTNV-1">
          <mxGeometry x="160" y="241" width="120" height="40" as="geometry" />
        </mxCell>
        <mxCell id="jihVnL-XziXCGQ76NfYd-2" value="" style="rounded=0;html=1;jettySize=auto;orthogonalLoop=1;fontSize=11;endArrow=block;endFill=0;endSize=8;strokeWidth=1;shadow=0;labelBackgroundColor=none;edgeStyle=orthogonalEdgeStyle;entryX=0.5;entryY=0;entryDx=0;entryDy=0;" edge="1" parent="WIyWlLk6GJQsqaUBKTNV-1">
          <mxGeometry relative="1" as="geometry">
            <mxPoint x="219" y="200" as="sourcePoint" />
            <mxPoint x="219" y="242" as="targetPoint" />
            <Array as="points">
              <mxPoint x="219" y="220" />
              <mxPoint x="219" y="220" />
            </Array>
          </mxGeometry>
        </mxCell>
        <mxCell id="jihVnL-XziXCGQ76NfYd-3" value="" style="rounded=0;html=1;jettySize=auto;orthogonalLoop=1;fontSize=11;endArrow=block;endFill=0;endSize=8;strokeWidth=1;shadow=0;labelBackgroundColor=none;edgeStyle=orthogonalEdgeStyle;entryX=0.5;entryY=0;entryDx=0;entryDy=0;" edge="1" parent="WIyWlLk6GJQsqaUBKTNV-1">
          <mxGeometry relative="1" as="geometry">
            <mxPoint x="220" y="280" as="sourcePoint" />
            <mxPoint x="220" y="322" as="targetPoint" />
          </mxGeometry>
        </mxCell>
        <mxCell id="jihVnL-XziXCGQ76NfYd-4" value="Has at least one order been entered?" style="rhombus;whiteSpace=wrap;html=1;shadow=0;fontFamily=Helvetica;fontSize=12;align=center;strokeWidth=1;spacing=6;spacingTop=-4;" vertex="1" parent="WIyWlLk6GJQsqaUBKTNV-1">
          <mxGeometry x="403" y="320" width="120" height="110" as="geometry" />
        </mxCell>
        <mxCell id="jihVnL-XziXCGQ76NfYd-6" value="Compile Shopping List" style="rounded=1;whiteSpace=wrap;html=1;fontSize=12;glass=0;strokeWidth=1;shadow=0;" vertex="1" parent="WIyWlLk6GJQsqaUBKTNV-1">
          <mxGeometry x="403" y="481" width="120" height="40" as="geometry" />
        </mxCell>
        <mxCell id="jihVnL-XziXCGQ76NfYd-9" value="Display Orders&lt;br&gt;" style="rounded=1;whiteSpace=wrap;html=1;fontSize=12;glass=0;strokeWidth=1;shadow=0;" vertex="1" parent="WIyWlLk6GJQsqaUBKTNV-1">
          <mxGeometry x="402" y="562" width="120" height="40" as="geometry" />
        </mxCell>
        <mxCell id="jihVnL-XziXCGQ76NfYd-10" value="Display Shopping List" style="rounded=1;whiteSpace=wrap;html=1;fontSize=12;glass=0;strokeWidth=1;shadow=0;" vertex="1" parent="WIyWlLk6GJQsqaUBKTNV-1">
          <mxGeometry x="402" y="641" width="120" height="40" as="geometry" />
        </mxCell>
        <mxCell id="jihVnL-XziXCGQ76NfYd-24" value="Yes&lt;br&gt;" style="rounded=0;html=1;jettySize=auto;orthogonalLoop=1;fontSize=11;endArrow=block;endFill=0;endSize=8;strokeWidth=1;shadow=0;labelBackgroundColor=none;edgeStyle=orthogonalEdgeStyle;entryX=0.5;entryY=0;entryDx=0;entryDy=0;labelPosition=right;verticalLabelPosition=middle;align=left;verticalAlign=middle;" edge="1" parent="WIyWlLk6GJQsqaUBKTNV-1">
          <mxGeometry relative="1" as="geometry">
            <mxPoint x="220" y="427" as="sourcePoint" />
            <mxPoint x="220" y="469" as="targetPoint" />
          </mxGeometry>
        </mxCell>
        <mxCell id="dZwhz64nVsfT17MqeMXo-0" value="" style="rounded=0;html=1;jettySize=auto;orthogonalLoop=1;fontSize=11;endArrow=block;endFill=0;endSize=8;strokeWidth=1;shadow=0;labelBackgroundColor=none;edgeStyle=orthogonalEdgeStyle;entryX=0;entryY=0.5;entryDx=0;entryDy=0;exitX=0;exitY=0.5;exitDx=0;exitDy=0;" edge="1" parent="WIyWlLk6GJQsqaUBKTNV-1" source="jihVnL-XziXCGQ76NfYd-10" target="WIyWlLk6GJQsqaUBKTNV-6">
          <mxGeometry relative="1" as="geometry">
            <mxPoint x="403" y="616" as="sourcePoint" />
            <mxPoint x="83" y="366" as="targetPoint" />
            <Array as="points">
              <mxPoint x="83" y="661" />
              <mxPoint x="83" y="374" />
            </Array>
          </mxGeometry>
        </mxCell>
        <mxCell id="dZwhz64nVsfT17MqeMXo-3" value="" style="rounded=0;html=1;jettySize=auto;orthogonalLoop=1;fontSize=11;endArrow=block;endFill=0;endSize=8;strokeWidth=1;shadow=0;labelBackgroundColor=none;edgeStyle=orthogonalEdgeStyle;exitX=0;exitY=0.5;exitDx=0;exitDy=0;" edge="1" parent="WIyWlLk6GJQsqaUBKTNV-1" source="WIyWlLk6GJQsqaUBKTNV-12">
          <mxGeometry relative="1" as="geometry">
            <mxPoint x="230" y="524" as="sourcePoint" />
            <mxPoint x="161" y="370" as="targetPoint" />
            <Array as="points">
              <mxPoint x="120" y="491" />
              <mxPoint x="120" y="421" />
              <mxPoint x="161" y="421" />
            </Array>
          </mxGeometry>
        </mxCell>
        <mxCell id="dZwhz64nVsfT17MqeMXo-5" value="" style="rounded=0;html=1;jettySize=auto;orthogonalLoop=1;fontSize=11;endArrow=block;endFill=0;endSize=8;strokeWidth=1;shadow=0;labelBackgroundColor=none;edgeStyle=orthogonalEdgeStyle;entryX=0.5;entryY=0;entryDx=0;entryDy=0;" edge="1" parent="WIyWlLk6GJQsqaUBKTNV-1">
          <mxGeometry relative="1" as="geometry">
            <mxPoint x="462.5" y="520" as="sourcePoint" />
            <mxPoint x="462.5" y="562" as="targetPoint" />
          </mxGeometry>
        </mxCell>
        <mxCell id="dZwhz64nVsfT17MqeMXo-6" value="" style="rounded=0;html=1;jettySize=auto;orthogonalLoop=1;fontSize=11;endArrow=block;endFill=0;endSize=8;strokeWidth=1;shadow=0;labelBackgroundColor=none;edgeStyle=orthogonalEdgeStyle;entryX=0.5;entryY=0;entryDx=0;entryDy=0;" edge="1" parent="WIyWlLk6GJQsqaUBKTNV-1">
          <mxGeometry relative="1" as="geometry">
            <mxPoint x="463.5" y="601" as="sourcePoint" />
            <mxPoint x="463.5" y="643" as="targetPoint" />
          </mxGeometry>
        </mxCell>
        <mxCell id="dZwhz64nVsfT17MqeMXo-7" value="" style="rounded=0;html=1;jettySize=auto;orthogonalLoop=1;fontSize=11;endArrow=block;endFill=0;endSize=8;strokeWidth=1;shadow=0;labelBackgroundColor=none;edgeStyle=orthogonalEdgeStyle;entryX=0.5;entryY=0;entryDx=0;entryDy=0;" edge="1" parent="WIyWlLk6GJQsqaUBKTNV-1">
          <mxGeometry relative="1" as="geometry">
            <mxPoint x="218" y="121" as="sourcePoint" />
            <mxPoint x="218" y="163" as="targetPoint" />
            <Array as="points">
              <mxPoint x="218" y="141" />
              <mxPoint x="218" y="141" />
            </Array>
          </mxGeometry>
        </mxCell>
        <mxCell id="dZwhz64nVsfT17MqeMXo-8" value="No&lt;br&gt;" style="rounded=0;html=1;jettySize=auto;orthogonalLoop=1;fontSize=11;endArrow=block;endFill=0;endSize=8;strokeWidth=1;shadow=0;labelBackgroundColor=none;edgeStyle=orthogonalEdgeStyle;exitX=1;exitY=0.5;exitDx=0;exitDy=0;labelPosition=center;verticalLabelPosition=top;align=center;verticalAlign=bottom;" edge="1" parent="WIyWlLk6GJQsqaUBKTNV-1" source="WIyWlLk6GJQsqaUBKTNV-6">
          <mxGeometry relative="1" as="geometry">
            <mxPoint x="298" y="355" as="sourcePoint" />
            <mxPoint x="400" y="374" as="targetPoint" />
            <Array as="points">
              <mxPoint x="298" y="374" />
            </Array>
          </mxGeometry>
        </mxCell>
        <mxCell id="dZwhz64nVsfT17MqeMXo-9" value="No&lt;br&gt;" style="rounded=0;html=1;jettySize=auto;orthogonalLoop=1;fontSize=11;endArrow=block;endFill=0;endSize=8;strokeWidth=1;shadow=0;labelBackgroundColor=none;edgeStyle=orthogonalEdgeStyle;exitX=1;exitY=0.5;exitDx=0;exitDy=0;labelPosition=center;verticalLabelPosition=top;align=center;verticalAlign=bottom;" edge="1" parent="WIyWlLk6GJQsqaUBKTNV-1">
          <mxGeometry relative="1" as="geometry">
            <mxPoint x="521.5" y="375.5" as="sourcePoint" />
            <mxPoint x="590" y="376" as="targetPoint" />
            <Array as="points">
              <mxPoint x="541" y="376" />
            </Array>
          </mxGeometry>
        </mxCell>
      </root>
    </mxGraphModel>
  </diagram>
  <diagram id="2PsSxkTvUE5UpR0IrNPt" name="GetOrder">
    <mxGraphModel dx="1422" dy="794" grid="1" gridSize="10" guides="1" tooltips="1" connect="1" arrows="1" fold="1" page="1" pageScale="1" pageWidth="850" pageHeight="1100" math="0" shadow="0">
      <root>
        <mxCell id="hsJRJXBi64jZXane6fkd-0" />
        <mxCell id="hsJRJXBi64jZXane6fkd-1" parent="hsJRJXBi64jZXane6fkd-0" />
        <mxCell id="lEaO3CUjMfzcGsYxeWFf-0" value="Start&lt;br&gt;" style="rounded=1;whiteSpace=wrap;html=1;fontSize=12;glass=0;strokeWidth=1;shadow=0;" vertex="1" parent="hsJRJXBi64jZXane6fkd-1">
          <mxGeometry x="201" y="122" width="120" height="40" as="geometry" />
        </mxCell>
        <mxCell id="lEaO3CUjMfzcGsYxeWFf-1" value="Is entry valid?&lt;br&gt;" style="rhombus;whiteSpace=wrap;html=1;shadow=0;fontFamily=Helvetica;fontSize=12;align=center;strokeWidth=1;spacing=6;spacingTop=-4;" vertex="1" parent="hsJRJXBi64jZXane6fkd-1">
          <mxGeometry x="201" y="361" width="117" height="107" as="geometry" />
        </mxCell>
        <mxCell id="lEaO3CUjMfzcGsYxeWFf-2" value="Request Quantity&lt;br&gt;" style="rounded=1;whiteSpace=wrap;html=1;fontSize=12;glass=0;strokeWidth=1;shadow=0;" vertex="1" parent="hsJRJXBi64jZXane6fkd-1">
          <mxGeometry x="201" y="513" width="120" height="40" as="geometry" />
        </mxCell>
        <mxCell id="lEaO3CUjMfzcGsYxeWFf-3" value="Request recipe number" style="rounded=1;whiteSpace=wrap;html=1;fontSize=12;glass=0;strokeWidth=1;shadow=0;" vertex="1" parent="hsJRJXBi64jZXane6fkd-1">
          <mxGeometry x="201" y="204" width="120" height="40" as="geometry" />
        </mxCell>
        <mxCell id="lEaO3CUjMfzcGsYxeWFf-4" value="Validate input&lt;br&gt;" style="rounded=1;whiteSpace=wrap;html=1;fontSize=12;glass=0;strokeWidth=1;shadow=0;" vertex="1" parent="hsJRJXBi64jZXane6fkd-1">
          <mxGeometry x="202.5" y="282" width="120" height="40" as="geometry" />
        </mxCell>
        <mxCell id="lEaO3CUjMfzcGsYxeWFf-5" value="" style="rounded=0;html=1;jettySize=auto;orthogonalLoop=1;fontSize=11;endArrow=block;endFill=0;endSize=8;strokeWidth=1;shadow=0;labelBackgroundColor=none;edgeStyle=orthogonalEdgeStyle;entryX=0.5;entryY=0;entryDx=0;entryDy=0;" edge="1" parent="hsJRJXBi64jZXane6fkd-1">
          <mxGeometry relative="1" as="geometry">
            <mxPoint x="260" y="242" as="sourcePoint" />
            <mxPoint x="260" y="284" as="targetPoint" />
            <Array as="points">
              <mxPoint x="260" y="262" />
              <mxPoint x="260" y="262" />
            </Array>
          </mxGeometry>
        </mxCell>
        <mxCell id="lEaO3CUjMfzcGsYxeWFf-6" value="" style="rounded=0;html=1;jettySize=auto;orthogonalLoop=1;fontSize=11;endArrow=block;endFill=0;endSize=8;strokeWidth=1;shadow=0;labelBackgroundColor=none;edgeStyle=orthogonalEdgeStyle;entryX=0.5;entryY=0;entryDx=0;entryDy=0;" edge="1" parent="hsJRJXBi64jZXane6fkd-1">
          <mxGeometry relative="1" as="geometry">
            <mxPoint x="256.5" y="322" as="sourcePoint" />
            <mxPoint x="256.5" y="364" as="targetPoint" />
          </mxGeometry>
        </mxCell>
        <mxCell id="lEaO3CUjMfzcGsYxeWFf-7" value="Yes&lt;br&gt;" style="rounded=0;html=1;jettySize=auto;orthogonalLoop=1;fontSize=11;endArrow=block;endFill=0;endSize=8;strokeWidth=1;shadow=0;labelBackgroundColor=none;edgeStyle=orthogonalEdgeStyle;entryX=0.5;entryY=0;entryDx=0;entryDy=0;labelPosition=right;verticalLabelPosition=middle;align=left;verticalAlign=middle;" edge="1" parent="hsJRJXBi64jZXane6fkd-1">
          <mxGeometry relative="1" as="geometry">
            <mxPoint x="260" y="469" as="sourcePoint" />
            <mxPoint x="260" y="511" as="targetPoint" />
          </mxGeometry>
        </mxCell>
        <mxCell id="lEaO3CUjMfzcGsYxeWFf-8" value="" style="rounded=0;html=1;jettySize=auto;orthogonalLoop=1;fontSize=11;endArrow=block;endFill=0;endSize=8;strokeWidth=1;shadow=0;labelBackgroundColor=none;edgeStyle=orthogonalEdgeStyle;exitX=0;exitY=0.5;exitDx=0;exitDy=0;labelPosition=right;verticalLabelPosition=middle;align=left;verticalAlign=middle;entryX=0;entryY=0.5;entryDx=0;entryDy=0;" edge="1" parent="hsJRJXBi64jZXane6fkd-1" target="lEaO3CUjMfzcGsYxeWFf-3">
          <mxGeometry relative="1" as="geometry">
            <mxPoint x="200" y="413" as="sourcePoint" />
            <mxPoint x="201" y="312" as="targetPoint" />
            <Array as="points">
              <mxPoint x="160" y="413" />
              <mxPoint x="160" y="224" />
            </Array>
          </mxGeometry>
        </mxCell>
        <mxCell id="lEaO3CUjMfzcGsYxeWFf-12" value="No&lt;br&gt;" style="edgeLabel;html=1;align=center;verticalAlign=middle;resizable=0;points=[];fontColor=#000000;" vertex="1" connectable="0" parent="lEaO3CUjMfzcGsYxeWFf-8">
          <mxGeometry x="0.2342" relative="1" as="geometry">
            <mxPoint as="offset" />
          </mxGeometry>
        </mxCell>
        <mxCell id="lEaO3CUjMfzcGsYxeWFf-9" value="" style="rounded=0;html=1;jettySize=auto;orthogonalLoop=1;fontSize=11;endArrow=block;endFill=0;endSize=8;strokeWidth=1;shadow=0;labelBackgroundColor=none;edgeStyle=orthogonalEdgeStyle;entryX=0.5;entryY=0;entryDx=0;entryDy=0;" edge="1" parent="hsJRJXBi64jZXane6fkd-1">
          <mxGeometry relative="1" as="geometry">
            <mxPoint x="259" y="163" as="sourcePoint" />
            <mxPoint x="259" y="205" as="targetPoint" />
            <Array as="points">
              <mxPoint x="259" y="183" />
              <mxPoint x="259" y="183" />
            </Array>
          </mxGeometry>
        </mxCell>
        <mxCell id="lEaO3CUjMfzcGsYxeWFf-13" value="Is entry valid?&lt;br&gt;" style="rhombus;whiteSpace=wrap;html=1;shadow=0;fontFamily=Helvetica;fontSize=12;align=center;strokeWidth=1;spacing=6;spacingTop=-4;" vertex="1" parent="hsJRJXBi64jZXane6fkd-1">
          <mxGeometry x="200" y="681" width="117" height="107" as="geometry" />
        </mxCell>
        <mxCell id="lEaO3CUjMfzcGsYxeWFf-14" value="Add order to dictionary&lt;br&gt;" style="rounded=1;whiteSpace=wrap;html=1;fontSize=12;glass=0;strokeWidth=1;shadow=0;" vertex="1" parent="hsJRJXBi64jZXane6fkd-1">
          <mxGeometry x="200" y="842" width="120" height="40" as="geometry" />
        </mxCell>
        <mxCell id="lEaO3CUjMfzcGsYxeWFf-15" value="Yes&lt;br&gt;" style="rounded=0;html=1;jettySize=auto;orthogonalLoop=1;fontSize=11;endArrow=block;endFill=0;endSize=8;strokeWidth=1;shadow=0;labelBackgroundColor=none;edgeStyle=orthogonalEdgeStyle;entryX=0.5;entryY=0;entryDx=0;entryDy=0;labelPosition=right;verticalLabelPosition=middle;align=left;verticalAlign=middle;" edge="1" parent="hsJRJXBi64jZXane6fkd-1">
          <mxGeometry x="-0.4444" relative="1" as="geometry">
            <mxPoint x="257" y="788" as="sourcePoint" />
            <mxPoint x="258" y="841" as="targetPoint" />
            <Array as="points">
              <mxPoint x="258" y="788" />
            </Array>
            <mxPoint as="offset" />
          </mxGeometry>
        </mxCell>
        <mxCell id="lEaO3CUjMfzcGsYxeWFf-16" value="" style="rounded=0;html=1;jettySize=auto;orthogonalLoop=1;fontSize=11;endArrow=block;endFill=0;endSize=8;strokeWidth=1;shadow=0;labelBackgroundColor=none;edgeStyle=orthogonalEdgeStyle;exitX=0;exitY=0.5;exitDx=0;exitDy=0;labelPosition=right;verticalLabelPosition=middle;align=left;verticalAlign=middle;entryX=0;entryY=0.5;entryDx=0;entryDy=0;" edge="1" parent="hsJRJXBi64jZXane6fkd-1" target="lEaO3CUjMfzcGsYxeWFf-2">
          <mxGeometry relative="1" as="geometry">
            <mxPoint x="199" y="733" as="sourcePoint" />
            <mxPoint x="200" y="632" as="targetPoint" />
            <Array as="points">
              <mxPoint x="159" y="733" />
              <mxPoint x="159" y="533" />
            </Array>
          </mxGeometry>
        </mxCell>
        <mxCell id="lEaO3CUjMfzcGsYxeWFf-17" value="No&lt;br&gt;" style="edgeLabel;html=1;align=center;verticalAlign=middle;resizable=0;points=[];fontColor=#000000;" vertex="1" connectable="0" parent="lEaO3CUjMfzcGsYxeWFf-16">
          <mxGeometry x="0.2342" relative="1" as="geometry">
            <mxPoint as="offset" />
          </mxGeometry>
        </mxCell>
        <mxCell id="lEaO3CUjMfzcGsYxeWFf-18" value="Validate input&lt;br&gt;" style="rounded=1;whiteSpace=wrap;html=1;fontSize=12;glass=0;strokeWidth=1;shadow=0;" vertex="1" parent="hsJRJXBi64jZXane6fkd-1">
          <mxGeometry x="201.5" y="598" width="120" height="40" as="geometry" />
        </mxCell>
        <mxCell id="lEaO3CUjMfzcGsYxeWFf-19" value="" style="rounded=0;html=1;jettySize=auto;orthogonalLoop=1;fontSize=11;endArrow=block;endFill=0;endSize=8;strokeWidth=1;shadow=0;labelBackgroundColor=none;edgeStyle=orthogonalEdgeStyle;entryX=0.5;entryY=0;entryDx=0;entryDy=0;" edge="1" parent="hsJRJXBi64jZXane6fkd-1">
          <mxGeometry relative="1" as="geometry">
            <mxPoint x="257.5" y="640" as="sourcePoint" />
            <mxPoint x="257.5" y="682" as="targetPoint" />
          </mxGeometry>
        </mxCell>
        <mxCell id="lEaO3CUjMfzcGsYxeWFf-20" value="" style="rounded=0;html=1;jettySize=auto;orthogonalLoop=1;fontSize=11;endArrow=block;endFill=0;endSize=8;strokeWidth=1;shadow=0;labelBackgroundColor=none;edgeStyle=orthogonalEdgeStyle;entryX=0.5;entryY=0;entryDx=0;entryDy=0;" edge="1" parent="hsJRJXBi64jZXane6fkd-1">
          <mxGeometry relative="1" as="geometry">
            <mxPoint x="259.5" y="554" as="sourcePoint" />
            <mxPoint x="259.5" y="596" as="targetPoint" />
          </mxGeometry>
        </mxCell>
        <mxCell id="lEaO3CUjMfzcGsYxeWFf-22" value="Display order&amp;nbsp;&lt;br&gt;" style="rounded=1;whiteSpace=wrap;html=1;fontSize=12;glass=0;strokeWidth=1;shadow=0;" vertex="1" parent="hsJRJXBi64jZXane6fkd-1">
          <mxGeometry x="202" y="923" width="120" height="40" as="geometry" />
        </mxCell>
        <mxCell id="lEaO3CUjMfzcGsYxeWFf-23" value="Yes&lt;br&gt;" style="rounded=0;html=1;jettySize=auto;orthogonalLoop=1;fontSize=11;endArrow=block;endFill=0;endSize=8;strokeWidth=1;shadow=0;labelBackgroundColor=none;edgeStyle=orthogonalEdgeStyle;entryX=0.5;entryY=0;entryDx=0;entryDy=0;labelPosition=right;verticalLabelPosition=middle;align=left;verticalAlign=middle;" edge="1" parent="hsJRJXBi64jZXane6fkd-1">
          <mxGeometry relative="1" as="geometry">
            <mxPoint x="259" y="881" as="sourcePoint" />
            <mxPoint x="259" y="923" as="targetPoint" />
          </mxGeometry>
        </mxCell>
        <mxCell id="gjBdFKkUhvDgflCIPYUm-0" value="Compile Shopping List&lt;br&gt;" style="whiteSpace=wrap;html=1;fontColor=#000000;" vertex="1" parent="hsJRJXBi64jZXane6fkd-1">
          <mxGeometry x="40" y="40" width="120" height="60" as="geometry" />
        </mxCell>
      </root>
    </mxGraphModel>
  </diagram>
  <diagram id="bJ549bN5FYdmL6FTh3jA" name="CompileShoppingList">
    <mxGraphModel dx="1422" dy="794" grid="1" gridSize="10" guides="1" tooltips="1" connect="1" arrows="1" fold="1" page="1" pageScale="1" pageWidth="850" pageHeight="1100" math="0" shadow="0">
      <root>
        <mxCell id="zjzTBXTXOtBgbCqiOhsa-0" />
        <mxCell id="zjzTBXTXOtBgbCqiOhsa-1" parent="zjzTBXTXOtBgbCqiOhsa-0" />
        <mxCell id="0mvPKNawgUQIcKR4XQ82-0" value="Start&lt;br&gt;" style="rounded=1;whiteSpace=wrap;html=1;fontSize=12;glass=0;strokeWidth=1;shadow=0;" vertex="1" parent="zjzTBXTXOtBgbCqiOhsa-1">
          <mxGeometry x="160" y="121" width="120" height="40" as="geometry" />
        </mxCell>
        <mxCell id="0mvPKNawgUQIcKR4XQ82-1" value="Ingredient in list?&lt;br&gt;" style="rhombus;whiteSpace=wrap;html=1;shadow=0;fontFamily=Helvetica;fontSize=12;align=center;strokeWidth=1;spacing=6;spacingTop=-4;" vertex="1" parent="zjzTBXTXOtBgbCqiOhsa-1">
          <mxGeometry x="160" y="361" width="117" height="107" as="geometry" />
        </mxCell>
        <mxCell id="0mvPKNawgUQIcKR4XQ82-2" value="For each ingredient in recipe&lt;br&gt;" style="rounded=1;whiteSpace=wrap;html=1;fontSize=12;glass=0;strokeWidth=1;shadow=0;" vertex="1" parent="zjzTBXTXOtBgbCqiOhsa-1">
          <mxGeometry x="160" y="285" width="120" height="40" as="geometry" />
        </mxCell>
        <mxCell id="0mvPKNawgUQIcKR4XQ82-4" value="" style="rounded=0;html=1;jettySize=auto;orthogonalLoop=1;fontSize=11;endArrow=block;endFill=0;endSize=8;strokeWidth=1;shadow=0;labelBackgroundColor=none;edgeStyle=orthogonalEdgeStyle;entryX=0.5;entryY=0;entryDx=0;entryDy=0;" edge="1" parent="zjzTBXTXOtBgbCqiOhsa-1">
          <mxGeometry relative="1" as="geometry">
            <mxPoint x="219" y="323" as="sourcePoint" />
            <mxPoint x="219" y="365" as="targetPoint" />
            <Array as="points">
              <mxPoint x="219" y="343" />
              <mxPoint x="219" y="343" />
            </Array>
          </mxGeometry>
        </mxCell>
        <mxCell id="0mvPKNawgUQIcKR4XQ82-6" value="" style="rounded=0;html=1;jettySize=auto;orthogonalLoop=1;fontSize=11;endArrow=block;endFill=0;endSize=8;strokeWidth=1;shadow=0;labelBackgroundColor=none;edgeStyle=orthogonalEdgeStyle;exitX=0;exitY=0.5;exitDx=0;exitDy=0;labelPosition=right;verticalLabelPosition=middle;align=left;verticalAlign=middle;entryX=0;entryY=0.5;entryDx=0;entryDy=0;" edge="1" parent="zjzTBXTXOtBgbCqiOhsa-1" target="0mvPKNawgUQIcKR4XQ82-2" source="0mvPKNawgUQIcKR4XQ82-1">
          <mxGeometry relative="1" as="geometry">
            <mxPoint x="160" y="494" as="sourcePoint" />
            <mxPoint x="161" y="393" as="targetPoint" />
            <Array as="points">
              <mxPoint x="120" y="415" />
              <mxPoint x="120" y="305" />
            </Array>
          </mxGeometry>
        </mxCell>
        <mxCell id="0mvPKNawgUQIcKR4XQ82-7" value="Yes&lt;br&gt;" style="edgeLabel;html=1;align=center;verticalAlign=middle;resizable=0;points=[];fontColor=#000000;" vertex="1" connectable="0" parent="0mvPKNawgUQIcKR4XQ82-6">
          <mxGeometry x="0.2342" relative="1" as="geometry">
            <mxPoint as="offset" />
          </mxGeometry>
        </mxCell>
        <mxCell id="0mvPKNawgUQIcKR4XQ82-8" value="" style="rounded=0;html=1;jettySize=auto;orthogonalLoop=1;fontSize=11;endArrow=block;endFill=0;endSize=8;strokeWidth=1;shadow=0;labelBackgroundColor=none;edgeStyle=orthogonalEdgeStyle;entryX=0.5;entryY=0;entryDx=0;entryDy=0;" edge="1" parent="zjzTBXTXOtBgbCqiOhsa-1">
          <mxGeometry relative="1" as="geometry">
            <mxPoint x="218" y="162" as="sourcePoint" />
            <mxPoint x="218" y="204" as="targetPoint" />
            <Array as="points">
              <mxPoint x="218" y="182" />
              <mxPoint x="218" y="182" />
            </Array>
          </mxGeometry>
        </mxCell>
        <mxCell id="Lanq_9CFCluX6ZRWcaKZ-0" value="Compile Shopping List&lt;br&gt;" style="whiteSpace=wrap;html=1;fontColor=#000000;" vertex="1" parent="zjzTBXTXOtBgbCqiOhsa-1">
          <mxGeometry x="40" y="10" width="120" height="60" as="geometry" />
        </mxCell>
        <mxCell id="Lanq_9CFCluX6ZRWcaKZ-1" value="For each order in order list&lt;br&gt;" style="rounded=1;whiteSpace=wrap;html=1;fontSize=12;glass=0;strokeWidth=1;shadow=0;" vertex="1" parent="zjzTBXTXOtBgbCqiOhsa-1">
          <mxGeometry x="159" y="201" width="120" height="40" as="geometry" />
        </mxCell>
        <mxCell id="Lanq_9CFCluX6ZRWcaKZ-4" value="" style="rounded=0;html=1;jettySize=auto;orthogonalLoop=1;fontSize=11;endArrow=block;endFill=0;endSize=8;strokeWidth=1;shadow=0;labelBackgroundColor=none;edgeStyle=orthogonalEdgeStyle;exitX=1;exitY=0.5;exitDx=0;exitDy=0;labelPosition=right;verticalLabelPosition=middle;align=left;verticalAlign=middle;" edge="1" parent="zjzTBXTXOtBgbCqiOhsa-1" source="0mvPKNawgUQIcKR4XQ82-1">
          <mxGeometry relative="1" as="geometry">
            <mxPoint x="392" y="504" as="sourcePoint" />
            <mxPoint x="390" y="415" as="targetPoint" />
            <Array as="points">
              <mxPoint x="330" y="415" />
              <mxPoint x="330" y="415" />
            </Array>
          </mxGeometry>
        </mxCell>
        <mxCell id="Lanq_9CFCluX6ZRWcaKZ-5" value="No&lt;br&gt;" style="edgeLabel;html=1;align=center;verticalAlign=middle;resizable=0;points=[];fontColor=#000000;" vertex="1" connectable="0" parent="Lanq_9CFCluX6ZRWcaKZ-4">
          <mxGeometry x="0.2342" relative="1" as="geometry">
            <mxPoint as="offset" />
          </mxGeometry>
        </mxCell>
        <mxCell id="Lanq_9CFCluX6ZRWcaKZ-6" value="Add ingredient" style="rounded=1;whiteSpace=wrap;html=1;fontSize=12;glass=0;strokeWidth=1;shadow=0;" vertex="1" parent="zjzTBXTXOtBgbCqiOhsa-1">
          <mxGeometry x="401" y="400" width="120" height="40" as="geometry" />
        </mxCell>
      </root>
    </mxGraphModel>
  </diagram>
</mxfile>
